/* XPM */
static char *XPM_icon[] = {
"32 32 17 1 16 16",
"  c None",
"s c #282a2e",
"S c #373b41",
"r c #a54242",
"R c #cc6666",
"g c #8c9440",
"G c #b5bd68",
"y c #de935f",
"Y c #f0c674",
"b c #5f819d",
"B c #81a2be",
"m c #85678f",
"M c #b294bb",
"c c #5e8d87",
"C c #8abeb7",
"w c #707880",
"W c #c5c8c6",
"                                ",
"                                ",
"                                ",
"                                ",
"                                ",
" GGGGGG  GGGGGG          gggggg ",
" GGGGGG  GGGGGG          gggggg ",
" GG  GG  GG  GG    gg    gg  gg ",
" GG  GG  GG  GG    gg    gg  gg ",
" GGGGGG  GGGGGG          gggggg ",
" GGGGGG  GGGGGG          gggggg ",
"                                ",
"                                ",
"                 gggggg         ",
"                 gggggg         ",
"   GG      GG    gg  gg    gg   ",
"   GG      GG    gg  gg    gg   ",
"                 gggggg         ",
"                 gggggg         ",
"                                ",
"                                ",
" GGGGGG          gggggg         ",
" GGGGGG          gggggg         ",
" GG  GG    GG    gg  gg    gg   ",
" GG  GG    GG    gg  gg    gg   ",
" GGGGGG          gggggg         ",
" GGGGGG          gggggg         ",
"                                ",
"                                ",
"                                ",
"                                ",
"                                ",
};
